ply
format ascii 1.0
element vertex 454
property float x
property float y
property float z
element face 452
property list uchar int vertex_indices
end_header
-1.86265e-09 949.224 0
-1.86265e-09 951.29 0
11.9103 951.29 0
13.1013 950.257 0
20.2475 950.257 0
21.4385 951.29 0
30.9667 951.29 0
32.1578 952.323 0
42.877 952.323 0
44.0681 953.356 0
53.5963 953.356 0
54.7873 954.388 0
66.6976 954.388 0
67.8886 955.421 0
75.0348 955.421 0
76.2258 956.454 0
82.181 956.454 0
83.372 957.487 0
86.9451 957.487 0
88.1361 958.52 0
91.7092 958.52 0
92.9002 959.553 0
100.046 959.553 0
101.237 960.586 0
110.766 960.586 0
111.957 961.619 0
114.339 961.619 0
116.721 963.684 0
117.912 963.684 0
122.676 967.816 0
146.497 967.816 0
147.688 968.849 0
154.834 968.849 0
156.025 969.882 0
163.171 969.882 0
164.362 970.915 0
165.553 970.915 0
166.744 971.947 0
167.935 971.947 0
169.126 972.98 0
169.126 974.013 0
170.317 975.046 0
170.317 978.145 0
171.508 979.178 0
171.508 983.121 0
171.892 983.14 0
171.508 989.323 0
171.508 993.638 0
173.89 993.638 0
175.081 992.605 0
176.272 992.605 0
177.463 991.572 0
177.463 990.539 0
178.654 989.507 0
178.654 988.474 0
181.036 986.408 0
182.227 986.408 0
182.227 978.145 0
183.418 977.112 0
183.418 975.046 0
185.8 972.98 0
192.947 972.98 0
194.138 971.947 0
200.093 971.947 0
201.284 972.98 0
213.194 972.98 0
214.385 974.013 0
220.34 974.013 0
221.531 975.046 0
227.486 975.046 0
228.677 976.079 0
232.251 976.079 0
233.442 977.112 0
234.633 977.112 0
235.824 978.145 0
237.015 978.145 0
240.588 981.243 0
245.352 981.243 0
246.543 982.276 0
264.408 982.276 0
265.599 983.309 0
291.802 983.309 0
291.802 980.211 0
290.611 979.178 0
290.611 977.112 0
289.42 976.079 0
285.847 976.079 0
284.656 975.046 0
277.51 975.046 0
276.319 974.013 0
271.555 974.013 0
270.363 972.98 0
267.981 972.98 0
266.79 971.947 0
264.408 971.947 0
263.217 970.915 0
258.453 970.915 0
257.262 969.882 0
252.498 969.882 0
251.307 968.849 0
247.734 968.849 0
246.543 967.816 0
241.779 967.816 0
240.588 966.783 0
225.104 966.783 0
223.913 967.816 0
222.722 967.816 0
221.531 968.849 0
210.812 968.849 0
209.621 967.816 0
208.43 967.816 0
207.239 966.783 0
206.048 966.783 0
203.666 964.717 0
202.475 964.717 0
201.284 963.684 0
200.093 963.684 0
198.902 962.652 0
196.52 962.652 0
195.329 961.619 0
167.935 961.619 0
166.744 960.586 0
161.98 960.586 0
160.789 959.553 0
156.025 959.553 0
154.834 958.52 0
147.688 958.52 0
146.497 957.487 0
142.923 957.487 0
141.732 956.454 0
140.541 956.454 0
139.35 955.421 0
139.35 954.388 0
134.586 954.388 0
133.395 953.356 0
125.058 953.356 0
123.867 952.323 0
121.485 952.323 0
120.294 951.29 0
117.912 951.29 0
116.721 950.257 0
113.148 950.257 0
111.957 949.224 0
108.384 949.224 0
107.193 948.191 0
104.811 948.191 0
103.619 947.158 0
103.619 945.092 0
104.811 944.06 0
117.912 944.06 0
119.103 945.092 0
122.676 945.092 0
123.867 946.125 0
126.249 946.125 0
127.44 947.158 0
131.013 947.158 0
132.204 948.191 0
133.395 948.191 0
135.777 950.257 0
136.968 950.257 0
138.159 951.29 0
142.923 951.29 0
144.114 952.323 0
148.879 952.323 0
150.07 953.356 0
161.98 953.356 0
163.171 954.388 0
172.699 954.388 0
173.89 953.356 0
175.081 953.356 0
178.654 950.257 0
182.227 950.257 0
183.418 951.29 0
183.418 953.356 0
184.609 954.388 0
186.991 954.388 0
188.183 955.421 0
203.666 955.421 0
204.857 954.388 0
217.958 954.388 0
219.149 955.421 0
228.677 955.421 0
229.869 956.454 0
233.442 956.454 0
234.633 957.487 0
240.588 957.487 0
241.779 958.52 0
264.408 958.52 0
265.599 957.487 0
267.981 957.487 0
267.981 955.421 0
266.79 955.421 0
265.599 954.388 0
264.408 954.388 0
262.026 952.323 0
260.835 952.323 0
258.453 950.257 0
258.453 948.191 0
259.644 947.158 0
264.408 947.158 0
265.599 948.191 0
272.746 948.191 0
273.937 949.224 0
275.128 949.224 0
276.319 950.257 0
277.51 950.257 0
278.701 951.29 0
287.038 951.29 0
288.229 952.323 0
294.184 952.323 0
295.375 953.356 0
296.566 953.356 0
297.757 954.388 0
298.948 954.388 0
302.521 957.487 0
302.521 960.586 0
303.712 961.619 0
303.712 962.652 0
308.476 966.783 0
310.858 966.783 0
312.05 967.816 0
323.96 967.816 0
325.151 966.783 0
328.724 966.783 0
329.915 965.75 0
332.297 965.75 0
333.488 966.783 0
343.016 966.783 0
344.207 967.816 0
360.882 967.816 0
362.073 968.849 0
368.028 968.849 0
369.219 969.882 0
382.32 969.882 0
383.511 970.915 0
406.141 970.915 0
407.332 971.947 0
412.096 971.947 0
413.287 970.915 0
415.669 970.915 0
416.86 969.882 0
419.242 969.882 0
420.433 968.849 0
420.433 962.652 0
422.815 960.586 0
425.197 960.586 0
426.388 959.553 0
432.343 959.553 0
433.534 958.52 0
434.725 958.52 0
435.916 957.487 0
435.916 951.29 0
431.152 947.158 0
425.197 947.158 0
424.006 946.125 0
407.332 946.125 0
406.141 945.092 0
403.759 945.092 0
402.568 944.06 0
401.377 944.06 0
400.186 943.027 0
398.995 943.027 0
395.422 939.928 0
395.422 937.862 0
393.039 937.862 0
393.039 938.895 0
391.848 939.928 0
390.657 939.928 0
389.466 940.961 0
388.275 940.961 0
387.084 941.994 0
379.938 941.994 0
378.747 943.027 0
373.983 943.027 0
372.792 944.06 0
370.41 944.06 0
369.219 943.027 0
356.118 943.027 0
354.927 941.994 0
350.162 941.994 0
348.971 940.961 0
345.398 940.961 0
344.207 939.928 0
338.252 939.928 0
337.061 938.895 0
328.724 938.895 0
327.533 937.862 0
319.196 937.862 0
318.005 936.829 0
315.623 936.829 0
314.432 935.796 0
310.858 935.796 0
309.667 934.764 0
307.285 934.764 0
301.33 929.599 0
301.33 927.533 0
304.903 924.435 0
304.903 921.336 0
306.094 920.303 0
306.094 915.139 0
307.285 914.106 0
307.285 912.04 0
308.476 911.007 0
308.476 907.908 0
309.667 906.876 0
309.667 904.81 0
307.285 904.81 0
307.285 905.843 0
306.094 906.876 0
304.903 906.876 0
303.712 907.908 0
303.712 908.941 0
301.33 911.007 0
300.139 911.007 0
298.948 912.04 0
296.566 912.04 0
295.375 913.073 0
294.184 913.073 0
292.993 914.106 0
291.802 914.106 0
291.802 915.139 0
290.611 916.172 0
290.611 920.303 0
291.802 921.336 0
291.802 922.369 0
292.993 923.402 0
292.993 925.468 0
291.802 926.5 0
290.611 926.5 0
289.42 927.533 0
285.847 927.533 0
284.656 928.566 0
282.274 928.566 0
281.083 929.599 0
278.701 929.599 0
277.51 930.632 0
265.599 930.632 0
264.408 929.599 0
263.217 929.599 0
262.026 928.566 0
258.453 928.566 0
257.262 927.533 0
256.071 927.533 0
253.689 925.468 0
253.689 924.435 0
251.307 922.369 0
251.307 921.336 0
250.116 920.303 0
250.116 911.007 0
251.307 909.974 0
251.307 906.876 0
252.498 905.843 0
252.498 904.81 0
253.689 903.777 0
253.689 896.782 0
250.958 896.547 0
250.116 896.547 0
248.925 897.58 0
239.397 897.58 0
239.397 898.612 0
232.251 904.81 0
231.06 904.81 0
229.869 905.843 0
217.958 905.843 0
216.767 904.81 0
207.239 904.81 0
206.048 903.777 0
198.902 903.777 0
197.711 904.81 0
194.138 904.81 0
192.947 905.843 0
189.374 905.843 0
188.183 904.81 0
186.991 904.81 0
185.8 903.777 0
183.418 903.777 0
183.418 906.876 0
182.227 907.908 0
182.227 911.007 0
181.036 912.04 0
181.036 913.073 0
179.845 914.106 0
172.699 914.106 0
171.508 913.073 0
166.744 913.073 0
165.553 914.106 0
160.789 914.106 0
159.598 915.139 0
157.216 915.139 0
154.834 917.204 0
154.834 918.237 0
153.643 919.27 0
153.643 920.303 0
147.688 925.468 0
145.305 925.468 0
144.114 926.5 0
138.159 926.5 0
136.968 927.533 0
135.777 927.533 0
135.777 931.665 0
133.395 933.731 0
117.912 933.731 0
116.721 932.698 0
113.148 932.698 0
109.575 929.599 0
91.7092 929.599 0
90.5182 928.566 0
90.5182 926.5 0
91.7092 925.468 0
95.2823 925.468 0
95.2823 923.402 0
91.7092 923.402 0
86.9451 919.27 0
79.7989 919.27 0
78.6079 918.237 0
77.4169 918.237 0
71.4617 913.073 0
71.4617 912.04 0
66.6976 907.908 0
66.6976 906.876 0
65.5066 905.843 0
44.0681 905.843 0
42.877 906.876 0
39.3039 906.876 0
36.9219 908.941 0
36.9219 911.007 0
35.7309 912.04 0
35.7309 918.237 0
36.9219 919.27 0
36.9219 921.336 0
38.1129 922.369 0
38.1129 924.435 0
35.7309 926.5 0
32.1578 926.5 0
30.9667 927.533 0
28.5847 927.533 0
26.2026 929.599 0
26.2026 930.632 0
25.0116 931.665 0
25.0116 932.698 0
23.8206 933.731 0
23.8206 934.764 0
16.6744 940.961 0
15.4834 940.961 0
14.2923 941.994 0
13.1013 941.994 0
11.9103 943.027 0
8.3372 943.027 0
7.14617 944.06 0
5.95514 944.06 0
4.76411 945.092 0
3.57309 945.092 0
1.19103 947.158 0
1.19103 948.191 0
3 1 0 453
3 2 1 453
3 3 2 453
3 4 3 453
3 6 5 4
3 8 7 6
3 10 9 8
3 12 11 10
3 14 13 12
3 16 15 14
3 18 17 16
3 20 19 18
3 22 21 20
3 24 23 22
3 26 25 24
3 28 27 26
3 30 29 28
3 32 31 30
3 34 33 32
3 36 35 34
3 38 37 36
3 41 40 39
3 43 42 41
3 45 44 43
3 47 46 45
3 48 47 45
3 49 48 45
3 50 49 45
3 51 50 45
3 52 51 45
3 53 52 45
3 54 53 45
3 55 54 45
3 56 55 45
3 57 56 45
3 58 57 45
3 59 58 45
3 60 59 45
3 62 61 60
3 65 64 63
3 67 66 65
3 69 68 67
3 71 70 69
3 73 72 71
3 75 74 73
3 77 76 75
3 79 78 77
3 81 80 79
3 82 81 79
3 83 82 79
3 84 83 79
3 85 84 79
3 86 85 79
3 87 86 79
3 88 87 79
3 89 88 79
3 90 89 79
3 91 90 79
3 92 91 79
3 93 92 79
3 94 93 79
3 95 94 79
3 96 95 79
3 97 96 79
3 98 97 79
3 99 98 79
3 100 99 79
3 102 101 100
3 104 103 102
3 105 104 102
3 107 106 105
3 110 109 108
3 112 111 110
3 114 113 112
3 116 115 114
3 118 117 116
3 120 119 118
3 122 121 120
3 124 123 122
3 126 125 124
3 128 127 126
3 130 129 128
3 133 132 131
3 135 134 133
3 137 136 135
3 139 138 137
3 141 140 139
3 143 142 141
3 145 144 143
3 151 150 149
3 153 152 151
3 155 154 153
3 157 156 155
3 159 158 157
3 161 160 159
3 163 162 161
3 165 164 163
3 167 166 165
3 168 167 165
3 170 169 168
3 174 173 172
3 175 174 172
3 177 176 175
3 178 177 175
3 181 180 179
3 183 182 181
3 185 184 183
3 187 186 185
3 188 187 185
3 190 189 188
3 191 190 188
3 192 191 188
3 193 192 188
3 194 193 188
3 195 194 188
3 196 195 188
3 201 200 199
3 203 202 201
3 205 204 203
3 207 206 205
3 209 208 207
3 211 210 209
3 213 212 211
3 216 215 214
3 218 217 216
3 219 218 216
3 221 220 219
3 222 221 219
3 224 223 222
3 227 226 225
3 229 228 227
3 231 230 229
3 233 232 231
3 235 234 233
3 237 236 235
3 238 237 235
3 240 239 238
3 242 241 240
3 243 242 240
3 246 245 244
3 248 247 246
3 250 249 248
3 251 250 248
3 252 251 248
3 253 252 248
3 254 253 248
3 255 254 248
3 257 256 255
3 259 258 257
3 261 260 259
3 264 263 262
3 265 264 262
3 266 265 262
3 268 267 266
3 270 269 268
3 272 271 270
3 274 273 272
3 277 276 275
3 279 278 277
3 281 280 279
3 283 282 281
3 285 284 283
3 287 286 285
3 289 288 287
3 291 290 289
3 293 292 291
3 297 296 295
3 299 298 297
3 301 300 299
3 303 302 301
3 305 304 303
3 306 305 303
3 307 306 303
3 308 307 303
3 309 308 303
3 310 309 303
3 311 310 303
3 312 311 303
3 314 313 312
3 316 315 314
3 318 317 316
3 320 319 318
3 322 321 320
3 323 322 320
3 325 324 323
3 329 328 327
3 331 330 329
3 333 332 331
3 335 334 333
3 338 337 336
3 340 339 338
3 342 341 340
3 345 344 343
3 347 346 345
3 350 349 348
3 352 351 350
3 354 353 352
3 355 354 352
3 356 355 352
3 357 356 352
3 358 357 352
3 359 358 352
3 360 359 352
3 362 361 360
3 365 364 363
3 367 366 365
3 368 367 365
3 370 369 368
3 373 372 371
3 375 374 373
3 376 375 373
3 377 376 373
3 378 377 373
3 380 379 378
3 384 383 382
3 385 384 382
3 387 386 385
3 389 388 387
3 390 389 387
3 391 390 387
3 392 391 387
3 393 392 387
3 395 394 393
3 397 396 395
3 399 398 397
3 403 402 401
3 405 404 403
3 410 409 408
3 411 410 408
3 412 411 408
3 413 412 408
3 415 414 413
3 418 417 416
3 420 419 418
3 421 420 418
3 422 421 418
3 423 422 418
3 424 423 418
3 425 424 418
3 426 425 418
3 427 426 418
3 428 427 418
3 429 428 418
3 430 429 418
3 431 430 418
3 432 431 418
3 434 433 432
3 436 435 434
3 437 436 434
3 438 437 434
3 439 438 434
3 440 439 434
3 441 440 434
3 444 443 442
3 446 445 444
3 448 447 446
3 450 449 448
3 452 451 450
3 453 452 450
3 4 453 450
3 6 4 450
3 8 6 450
3 10 8 450
3 12 10 450
3 14 12 450
3 16 14 450
3 22 20 18
3 24 22 18
3 30 28 26
3 32 30 26
3 34 32 26
3 60 45 43
3 69 67 65
3 77 75 73
3 79 77 73
3 100 79 73
3 102 100 73
3 105 102 73
3 107 105 73
3 116 114 112
3 118 116 112
3 120 118 112
3 126 124 122
3 133 131 130
3 135 133 130
3 139 137 135
3 141 139 135
3 143 141 135
3 155 153 151
3 161 159 157
3 163 161 157
3 165 163 157
3 168 165 157
3 170 168 157
3 171 170 157
3 175 172 171
3 178 175 171
3 179 178 171
3 181 179 171
3 185 183 181
3 188 185 181
3 196 188 181
3 197 196 181
3 198 197 181
3 205 203 201
3 207 205 201
3 209 207 201
3 213 211 209
3 219 216 214
3 222 219 214
3 224 222 214
3 225 224 214
3 227 225 214
3 229 227 214
3 231 229 214
3 233 231 214
3 235 233 214
3 238 235 214
3 240 238 214
3 243 240 214
3 244 243 214
3 246 244 214
3 248 246 214
3 255 248 214
3 257 255 214
3 259 257 214
3 261 259 214
3 266 262 261
3 268 266 261
3 270 268 261
3 272 270 261
3 274 272 261
3 283 281 279
3 285 283 279
3 287 285 279
3 291 289 287
3 299 297 295
3 301 299 295
3 303 301 295
3 312 303 295
3 314 312 295
3 316 314 295
3 318 316 295
3 320 318 295
3 323 320 295
3 325 323 295
3 326 325 295
3 327 326 295
3 329 327 295
3 331 329 295
3 333 331 295
3 335 333 295
3 340 338 336
3 360 352 350
3 362 360 350
3 363 362 350
3 368 365 363
3 370 368 363
3 378 373 371
3 380 378 371
3 381 380 371
3 387 385 382
3 393 387 382
3 399 397 395
3 400 399 395
3 405 403 401
3 413 408 407
3 415 413 407
3 432 418 416
3 441 434 432
3 442 441 432
3 450 448 446
3 16 450 446
3 24 18 16
3 34 26 24
3 60 43 41
3 107 73 71
3 108 107 71
3 120 112 110
3 126 122 120
3 135 130 128
3 171 157 155
3 198 181 171
3 261 214 213
3 274 261 213
3 275 274 213
3 277 275 213
3 279 277 213
3 287 279 213
3 291 287 213
3 293 291 213
3 294 293 213
3 295 294 213
3 335 295 213
3 336 335 213
3 340 336 213
3 342 340 213
3 363 350 348
3 370 363 348
3 371 370 348
3 381 371 348
3 393 382 381
3 400 395 393
3 415 407 406
3 432 416 415
3 442 432 415
3 444 442 415
3 446 444 415
3 16 446 415
3 24 16 415
3 60 41 39
3 62 60 39
3 108 71 69
3 120 110 108
3 126 120 108
3 171 155 151
3 198 171 151
3 199 198 151
3 342 213 209
3 381 348 347
3 393 381 347
3 400 393 347
3 415 406 405
3 24 415 405
3 62 39 38
3 108 69 65
3 126 108 65
3 128 126 65
3 199 151 149
3 342 209 201
3 343 342 201
3 400 347 345
3 62 38 36
3 63 62 36
3 128 65 63
3 135 128 63
3 143 135 63
3 343 201 199
3 345 343 199
3 400 345 199
3 401 400 199
3 63 36 34
3 143 63 34
3 145 143 34
3 401 199 149
3 405 401 149
3 145 34 24
3 146 145 24
3 405 149 148
3 146 24 405
3 147 146 405
3 148 147 405
