ply
format ascii 1.0
element vertex 17
property float x
property float y
property float z
element face 15
property list uchar int vertex_indices
end_header
588.368 1455.34 0
588.368 1459.47 0
589.559 1460.5 0
589.559 1461.49 0
591.566 1462.82 0
590.817 1463.66 0
591.255 1464.04 0
603.852 1464.04 0
603.852 1463.6 0
599.087 1463.6 0
597.896 1462.57 0
597.896 1461.54 0
596.705 1460.5 0
595.514 1460.5 0
593.132 1458.44 0
593.132 1456.37 0
591.941 1455.34 0
3 1 0 16
3 2 1 16
3 3 2 16
3 4 3 16
3 6 5 4
3 8 7 6
3 9 8 6
3 10 9 6
3 11 10 6
3 12 11 6
3 13 12 6
3 14 13 6
3 16 15 14
3 4 16 14
3 6 4 14
