ply
format ascii 1.0
element vertex 17
property float x
property float y
property float z
element face 15
property list uchar int vertex_indices
end_header
889.698 1464.04 0
889.698 1461.54 0
888.507 1460.5 0
888.507 1459.47 0
886.125 1457.4 0
886.125 1456.37 0
883.743 1454.31 0
883.743 1453.27 0
877.788 1448.11 0
876.597 1448.11 0
875.406 1447.08 0
874.215 1447.08 0
873.024 1446.04 0
869.451 1446.04 0
869.451 1450.97 0
873.539 1453.13 0
865.77 1464.04 0
3 1 0 16
3 2 1 16
3 3 2 16
3 4 3 16
3 5 4 16
3 6 5 16
3 7 6 16
3 8 7 16
3 11 10 9
3 13 12 11
3 14 13 11
3 15 14 11
3 8 16 15
3 9 8 15
3 11 9 15
