ply
format ascii 1.0
element vertex 49
property float x
property float y
property float z
element face 68
property list uchar int vertex_indices
end_header
591.675 1459.26 0
590.261 1459.49 0
591.044 1458.06 0
590.402 1460.57 0
591.29 1460.13 0
591.255 1464.04 0
590.817 1463.66 0
591.566 1462.82 0
601.469 1463.6 0
600.702 1464.04 0
600.097 1463.82 0
602.277 1464.04 0
601.483 1463.89 0
597.553 1464.04 0
596.339 1462.96 0
597.896 1462.57 0
597.896 1461.54 0
596.524 1461.71 0
596.705 1460.5 0
595.514 1460.5 0
588.368 1459.47 0
589.559 1460.5 0
591.408 1461.14 0
592.969 1461.67 0
592.693 1460.13 0
599.087 1463.6 0
594.865 1461.98 0
594.979 1463.19 0
593.602 1462.96 0
589.861 1457.36 0
589.581 1458.36 0
588.368 1457.4 0
590.758 1456.58 0
593.132 1458.44 0
591.941 1455.34 0
590.155 1455.34 0
594.073 1460.75 0
594.323 1459.47 0
594.404 1464.04 0
592.83 1464.04 0
603.852 1464.04 0
603.852 1463.6 0
599.128 1464.04 0
595.979 1464.04 0
589.502 1456.4 0
592.002 1456.96 0
593.132 1456.37 0
588.368 1455.34 0
589.559 1461.49 0
3 0 1 2
3 3 1 4
3 5 6 7
3 8 9 10
3 8 11 12
3 13 14 15
3 16 17 18
3 15 17 16
3 18 17 19
3 20 1 21
3 22 3 4
3 23 22 24
3 14 17 15
3 25 13 15
3 26 27 28
3 29 30 31
3 29 32 2
3 30 20 31
3 33 0 2
3 34 32 35
3 22 4 24
3 0 4 1
3 36 26 23
3 24 33 37
3 19 36 37
3 28 38 39
3 39 7 28
3 26 28 23
3 7 23 28
3 36 24 37
3 7 22 23
3 40 11 41
3 12 9 8
3 41 11 8
3 10 9 42
3 27 43 38
3 14 13 43
3 44 29 31
3 35 32 44
3 45 34 46
3 32 29 44
3 30 29 2
3 2 32 45
3 32 34 45
3 30 1 20
3 30 2 1
3 45 33 2
3 45 46 33
3 44 47 35
3 44 31 47
3 21 1 3
3 3 48 21
3 48 3 22
3 22 7 48
3 36 23 24
3 19 26 36
3 5 7 39
3 28 27 38
3 17 14 26
3 26 19 17
3 25 8 10
3 42 25 10
3 13 25 42
3 12 11 9
3 0 24 4
3 0 33 24
3 27 14 43
3 27 26 14
