ply
format ascii 1.0
element vertex 127
property float x
property float y
property float z
element face 205
property list uchar int vertex_indices
end_header
883.34 1462.5 0
883.771 1460.71 0
884.927 1461.55 0
888.507 1460.5 0
887.348 1459.99 0
888.507 1459.47 0
886.125 1457.4 0
883.755 1456.62 0
886.125 1456.37 0
883.743 1454.31 0
884.934 1455.34 0
878.102 1452.18 0
879.185 1451.24 0
880.006 1452.79 0
877.788 1448.11 0
877.749 1450.17 0
876.597 1448.11 0
874.215 1447.08 0
872.479 1448.19 0
873.024 1446.04 0
873.973 1448.8 0
872.953 1450.09 0
881.728 1452.58 0
880.766 1450.69 0
882.254 1451.98 0
875.123 1450.3 0
881.78 1458.04 0
882.762 1459.5 0
880.457 1459.99 0
873.591 1456.72 0
875.254 1456.96 0
874.306 1457.99 0
882.025 1461.32 0
888.547 1462.22 0
889.698 1461.54 0
889.698 1464.04 0
877.206 1462.51 0
876.239 1464.04 0
875.108 1462 0
883.716 1464.04 0
882.221 1464.04 0
870.785 1461.15 0
869.869 1460.03 0
871.093 1459.1 0
871.013 1462.76 0
871.752 1464.04 0
870.256 1464.04 0
869.697 1462.67 0
868.761 1464.04 0
868.221 1462.68 0
885.578 1459.76 0
884.234 1458.52 0
880.179 1462.36 0
878.646 1461.32 0
881.251 1456.04 0
877.516 1455.77 0
876.475 1454.74 0
878.281 1454.15 0
876.578 1451.62 0
875.063 1448.27 0
873.497 1451.48 0
873.539 1453.13 0
871.495 1452.05 0
869.451 1450.97 0
871.141 1449.7 0
872.109 1457.67 0
871.596 1455.86 0
881.886 1454.13 0
883.743 1453.27 0
871.11 1447.2 0
871.045 1448.4 0
869.451 1448.51 0
869.451 1446.04 0
871.237 1446.04 0
886.841 1461.78 0
878.599 1462.85 0
879.23 1464.04 0
879.601 1457.76 0
879.15 1455.86 0
876.804 1457.29 0
875.478 1458.48 0
887.999 1463.22 0
886.707 1464.04 0
888.203 1464.04 0
885.124 1462.99 0
880.725 1464.04 0
881.698 1462.85 0
878.218 1456.95 0
877.998 1458.09 0
878.443 1459.47 0
877.004 1460.71 0
876.904 1459 0
873.883 1459.7 0
875.675 1459.98 0
870.625 1457.22 0
867.712 1461.31 0
868.683 1459.95 0
869.161 1461.3 0
876.218 1456.05 0
875.037 1455.55 0
867.265 1464.04 0
866.741 1462.68 0
873.488 1463.2 0
872.597 1461.86 0
883.132 1458.17 0
882.659 1455.27 0
880.115 1454.59 0
874.351 1451.81 0
879.277 1449.4 0
875.089 1453.97 0
873.57 1454.95 0
869.654 1458.59 0
872.168 1460.15 0
872.504 1458.96 0
877.734 1464.04 0
874.743 1464.04 0
873.248 1464.04 0
873.279 1458.21 0
885.212 1464.04 0
884.086 1459.62 0
887.316 1458.44 0
876.629 1453.16 0
875.218 1452.33 0
879.244 1450.38 0
875.406 1447.08 0
872.568 1454.49 0
865.77 1464.04 0
3 0 1 2
3 3 4 5
3 6 7 8
3 7 9 10
3 11 12 13
3 14 15 16
3 17 18 19
3 20 21 18
3 22 23 24
3 16 15 25
3 26 27 28
3 29 30 31
3 1 32 27
3 33 34 35
3 36 37 38
3 0 39 40
3 41 42 43
3 44 45 46
3 47 48 49
3 50 51 6
3 52 53 28
3 26 54 7
3 55 56 57
3 11 58 15
3 58 25 15
3 25 59 16
3 59 25 20
3 60 61 62
3 21 60 62
3 63 64 62
3 29 65 66
3 67 22 68
3 64 21 62
3 17 20 18
3 18 69 19
3 70 71 69
3 69 72 73
3 1 50 2
3 51 7 6
3 74 2 50
3 32 28 27
3 75 52 76
3 77 78 54
3 79 80 30
3 74 81 82
3 81 35 83
3 84 39 0
3 52 85 76
3 86 52 32
3 87 88 79
3 89 90 91
3 88 89 91
3 92 93 38
3 65 43 94
3 95 96 97
3 80 79 91
3 56 98 99
3 49 100 101
3 38 102 103
3 103 92 38
3 102 45 103
3 7 104 26
3 7 105 9
3 105 67 9
3 78 57 106
3 87 79 55
3 28 89 77
3 11 13 57
3 67 68 9
3 107 61 60
3 12 23 13
3 15 14 108
3 64 18 21
3 63 71 64
3 61 109 110
3 94 43 111
3 92 112 113
3 42 111 43
3 36 90 53
3 36 114 37
3 102 115 116
3 102 38 115
3 49 48 100
3 97 47 49
3 112 103 41
3 112 92 103
3 113 43 65
3 117 29 31
3 26 77 54
3 26 28 77
3 84 82 118
3 84 74 82
3 2 84 0
3 2 74 84
3 33 3 34
3 33 74 3
3 81 33 35
3 81 74 33
3 86 85 52
3 84 118 39
3 119 27 51
3 0 32 1
3 32 52 28
3 0 86 32
3 86 40 85
3 86 0 40
3 4 74 50
3 4 3 74
3 50 120 4
3 6 120 50
3 104 27 26
3 50 119 51
3 119 1 27
3 119 50 1
3 4 120 5
3 105 54 67
3 105 7 54
3 7 10 8
3 106 54 78
3 106 67 54
3 13 106 57
3 13 67 106
3 22 13 23
3 22 67 13
3 78 55 57
3 79 30 98
3 78 87 55
3 88 91 79
3 87 78 77
3 121 109 122
3 11 121 58
3 15 123 12
3 12 11 15
3 121 57 56
3 121 11 57
3 123 23 12
3 123 108 23
3 123 15 108
3 20 25 21
3 17 59 20
3 59 124 16
3 59 17 124
3 69 71 72
3 18 70 69
3 69 73 19
3 25 107 60
3 60 21 25
3 122 25 58
3 107 122 61
3 107 25 122
3 22 24 68
3 53 90 89
3 89 28 53
3 92 117 31
3 113 117 92
3 30 80 31
3 80 92 31
3 93 80 91
3 93 92 80
3 117 65 29
3 117 113 65
3 43 112 41
3 43 113 112
3 109 61 122
3 29 110 99
3 98 30 99
3 30 29 99
3 110 66 125
3 110 29 66
3 75 36 53
3 38 90 36
3 90 93 91
3 90 38 93
3 38 37 115
3 114 75 76
3 75 53 52
3 114 36 75
3 102 116 45
3 44 103 45
3 44 41 103
3 46 47 44
3 47 41 44
3 97 96 42
3 41 97 42
3 97 49 95
3 41 47 97
3 48 47 46
3 101 100 126
3 98 55 79
3 98 56 55
3 110 109 99
3 109 56 99
3 110 125 61
3 65 94 66
3 81 83 82
3 42 96 111
3 49 101 95
3 121 122 58
3 56 109 121
3 104 51 27
3 104 7 51
3 77 89 88
3 88 87 77
3 70 64 71
3 70 18 64
